<svg width="37" height="40" viewBox="0 0 37 40" fill="none" xmlns="http://www.w3.org/2000/svg">
<path d="M0 18.1395V40H36.8627V18.1395L18.4314 0L0 18.1395Z" fill="#333333"/>
<path d="M9.47144 21.9604V28.9633C9.47144 29.5367 9.59754 29.993 9.84975 30.3323C10.114 30.6599 10.5343 30.8237 11.1108 30.8237C11.6872 30.8237 12.1136 30.6599 12.3898 30.3323C12.666 29.993 12.8041 29.5367 12.8041 28.9633V21.9604H16.7853V28.9633C16.7853 30.1451 16.5331 31.1572 16.0287 31.9997C15.5243 32.8304 14.8338 33.4564 13.9571 33.8776C13.0803 34.2989 12.1016 34.5095 11.0207 34.5095C9.93982 34.5095 8.97905 34.2989 8.13837 33.8776C7.3097 33.4564 6.66118 32.8304 6.1928 31.9997C5.72442 31.1689 5.49023 30.1568 5.49023 28.9633V21.9604H9.47144Z" fill="white"/>
<path d="M26.6348 34.3866L24.2929 31.1572L22.3473 34.3866H17.7896L21.987 27.9805L17.6095 21.9604H22.3473L24.5991 25.067L26.4726 21.9604H31.0303L26.905 28.2437L31.3726 34.3866H26.6348Z" fill="white"/>
</svg>
