<svg width="27" height="31" viewBox="0 0 27 31" fill="none" xmlns="http://www.w3.org/2000/svg">
<path d="M7.8102 16.6254V21.4134C7.8102 21.8054 7.8942 22.1174 8.0622 22.3494C8.2382 22.5734 8.5182 22.6854 8.9022 22.6854C9.2862 22.6854 9.5702 22.5734 9.7542 22.3494C9.9382 22.1174 10.0302 21.8054 10.0302 21.4134V16.6254H12.6822V21.4134C12.6822 22.2214 12.5142 22.9134 12.1782 23.4894C11.8422 24.0574 11.3822 24.4854 10.7982 24.7734C10.2142 25.0614 9.5622 25.2054 8.8422 25.2054C8.1222 25.2054 7.4822 25.0614 6.9222 24.7734C6.3702 24.4854 5.9382 24.0574 5.6262 23.4894C5.3142 22.9214 5.1582 22.2294 5.1582 21.4134V16.6254H7.8102Z" fill="#333333"/>
<path d="M19.2432 25.1214L17.6832 22.9134L16.3872 25.1214H13.3512L16.1472 20.7414L13.2312 16.6254H16.3872L17.8872 18.7494L19.1352 16.6254H22.1712L19.4232 20.9214L22.3992 25.1214H19.2432Z" fill="#333333"/>
<path fill-rule="evenodd" clip-rule="evenodd" d="M13.5 0L27 13.5V30.6213H0V13.5L13.5 0ZM3 14.7426V27.6213H24V14.7426L13.5 4.24264L3 14.7426Z" fill="#333333"/>
</svg>
