<svg width="105" height="25" viewBox="0 0 105 25" fill="none" xmlns="http://www.w3.org/2000/svg">
<path d="M10.1562 22.1719C9.04167 23.599 7.53646 24.3125 5.64062 24.3125C3.78646 24.3125 2.38021 23.776 1.42188 22.7031C0.473958 21.6198 0 20.0677 0 18.0469V7.09375H5.26562V18.0781C5.26562 19.526 5.96875 20.25 7.375 20.25C8.58333 20.25 9.44271 19.8177 9.95312 18.9531V7.09375H15.25V24H10.3125L10.1562 22.1719Z" fill="#141D38"/>
<path d="M25 11.75L27.4531 7.09375H32.9219L28.4688 15.3281L33.1406 24H27.6406L24.9844 19L22.375 24H16.8438L21.5312 15.3281L17.0938 7.09375H22.625L25 11.75Z" fill="#141D38"/>
<path d="M44.1406 24C43.9531 23.6562 43.7865 23.151 43.6406 22.4844C42.6719 23.7031 41.3177 24.3125 39.5781 24.3125C37.9844 24.3125 36.6302 23.8333 35.5156 22.875C34.401 21.9062 33.8438 20.6927 33.8438 19.2344C33.8438 17.401 34.5208 16.0156 35.875 15.0781C37.2292 14.1406 39.1979 13.6719 41.7812 13.6719H43.4062V12.7812C43.4062 11.2292 42.7344 10.4531 41.3906 10.4531C40.1406 10.4531 39.5156 11.0677 39.5156 12.2969H34.25C34.25 10.6615 34.9427 9.33333 36.3281 8.3125C37.724 7.29167 39.5 6.78125 41.6562 6.78125C43.8125 6.78125 45.5156 7.30729 46.7656 8.35938C48.0156 9.41146 48.6562 10.8542 48.6875 12.6875V20.1719C48.7083 21.724 48.9479 22.9115 49.4062 23.7344V24H44.1406ZM40.8438 20.5625C41.5 20.5625 42.0417 20.4219 42.4688 20.1406C42.9062 19.8594 43.2188 19.5417 43.4062 19.1875V16.4844H41.875C40.0417 16.4844 39.125 17.3073 39.125 18.9531C39.125 19.4323 39.2865 19.8229 39.6094 20.125C39.9323 20.4167 40.3438 20.5625 40.8438 20.5625Z" fill="#141D38"/>
<path d="M61.8438 11.8594L60.1094 11.7344C58.4531 11.7344 57.3906 12.2552 56.9219 13.2969V24H51.6562V7.09375H56.5938L56.7656 9.26562C57.651 7.60938 58.8854 6.78125 60.4688 6.78125C61.0312 6.78125 61.5208 6.84375 61.9375 6.96875L61.8438 11.8594Z" fill="#141D38"/>
<path d="M70.5781 20.25C71.3177 20.25 71.8906 20.0521 72.2969 19.6562C72.7031 19.25 72.901 18.6875 72.8906 17.9688H77.8281C77.8281 19.8229 77.1615 21.3438 75.8281 22.5312C74.5052 23.7188 72.7969 24.3125 70.7031 24.3125C68.2448 24.3125 66.3073 23.5417 64.8906 22C63.474 20.4583 62.7656 18.3229 62.7656 15.5938V15.375C62.7656 13.6667 63.0781 12.1615 63.7031 10.8594C64.3385 9.54688 65.25 8.54167 66.4375 7.84375C67.625 7.13542 69.0312 6.78125 70.6562 6.78125C72.8542 6.78125 74.599 7.39062 75.8906 8.60938C77.1823 9.82812 77.8281 11.4792 77.8281 13.5625H72.8906C72.8906 12.6875 72.6771 12.0156 72.25 11.5469C71.8229 11.0781 71.25 10.8438 70.5312 10.8438C69.1667 10.8438 68.3698 11.7135 68.1406 13.4531C68.0677 14.0052 68.0312 14.7656 68.0312 15.7344C68.0312 17.4323 68.2344 18.6094 68.6406 19.2656C69.0469 19.9219 69.6927 20.25 70.5781 20.25Z" fill="#141D38"/>
<path d="M85.2031 8.90625C86.3281 7.48958 87.7656 6.78125 89.5156 6.78125C91.3802 6.78125 92.7865 7.33333 93.7344 8.4375C94.6823 9.54167 95.1667 11.1719 95.1875 13.3281V24H89.9062V13.4531C89.9062 12.5573 89.724 11.901 89.3594 11.4844C88.9948 11.0573 88.375 10.8438 87.5 10.8438C86.4167 10.8438 85.651 11.1875 85.2031 11.875V24H79.9375V0H85.2031V8.90625Z" fill="#141D38"/>
<path d="M101.375 18.8906C102.208 18.8906 102.901 19.1406 103.453 19.6406C104.005 20.1302 104.281 20.7604 104.281 21.5312C104.281 22.3021 104.005 22.9375 103.453 23.4375C102.901 23.9271 102.208 24.1719 101.375 24.1719C100.531 24.1719 99.8333 23.9219 99.2812 23.4219C98.7396 22.9219 98.4688 22.2917 98.4688 21.5312C98.4688 20.7708 98.7396 20.1406 99.2812 19.6406C99.8333 19.1406 100.531 18.8906 101.375 18.8906Z" fill="#141D38"/>
</svg>
