<svg width="105" height="25" viewBox="0 0 105 25" fill="none" xmlns="http://www.w3.org/2000/svg">
<path d="M10.5469 22.1719C9.43229 23.599 7.92708 24.3125 6.03125 24.3125C4.17708 24.3125 2.77083 23.776 1.8125 22.7031C0.864583 21.6198 0.390625 20.0677 0.390625 18.0469V7.09375H5.65625V18.0781C5.65625 19.526 6.35938 20.25 7.76562 20.25C8.97396 20.25 9.83333 19.8177 10.3438 18.9531V7.09375H15.6406V24H10.7031L10.5469 22.1719Z" fill="white"/>
<path d="M25.3906 11.75L27.8438 7.09375H33.3125L28.8594 15.3281L33.5312 24H28.0312L25.375 19L22.7656 24H17.2344L21.9219 15.3281L17.4844 7.09375H23.0156L25.3906 11.75Z" fill="white"/>
<path d="M44.5312 24C44.3438 23.6562 44.1771 23.151 44.0312 22.4844C43.0625 23.7031 41.7083 24.3125 39.9688 24.3125C38.375 24.3125 37.0208 23.8333 35.9062 22.875C34.7917 21.9062 34.2344 20.6927 34.2344 19.2344C34.2344 17.401 34.9115 16.0156 36.2656 15.0781C37.6198 14.1406 39.5885 13.6719 42.1719 13.6719H43.7969V12.7812C43.7969 11.2292 43.125 10.4531 41.7812 10.4531C40.5312 10.4531 39.9062 11.0677 39.9062 12.2969H34.6406C34.6406 10.6615 35.3333 9.33333 36.7188 8.3125C38.1146 7.29167 39.8906 6.78125 42.0469 6.78125C44.2031 6.78125 45.9062 7.30729 47.1562 8.35938C48.4062 9.41146 49.0469 10.8542 49.0781 12.6875V20.1719C49.099 21.724 49.3385 22.9115 49.7969 23.7344V24H44.5312ZM41.2344 20.5625C41.8906 20.5625 42.4323 20.4219 42.8594 20.1406C43.2969 19.8594 43.6094 19.5417 43.7969 19.1875V16.4844H42.2656C40.4323 16.4844 39.5156 17.3073 39.5156 18.9531C39.5156 19.4323 39.6771 19.8229 40 20.125C40.3229 20.4167 40.7344 20.5625 41.2344 20.5625Z" fill="white"/>
<path d="M62.2344 11.8594L60.5 11.7344C58.8438 11.7344 57.7812 12.2552 57.3125 13.2969V24H52.0469V7.09375H56.9844L57.1562 9.26562C58.0417 7.60938 59.276 6.78125 60.8594 6.78125C61.4219 6.78125 61.9115 6.84375 62.3281 6.96875L62.2344 11.8594Z" fill="white"/>
<path d="M70.9688 20.25C71.7083 20.25 72.2812 20.0521 72.6875 19.6562C73.0938 19.25 73.2917 18.6875 73.2812 17.9688H78.2188C78.2188 19.8229 77.5521 21.3438 76.2188 22.5312C74.8958 23.7188 73.1875 24.3125 71.0938 24.3125C68.6354 24.3125 66.6979 23.5417 65.2812 22C63.8646 20.4583 63.1562 18.3229 63.1562 15.5938V15.375C63.1562 13.6667 63.4688 12.1615 64.0938 10.8594C64.7292 9.54688 65.6406 8.54167 66.8281 7.84375C68.0156 7.13542 69.4219 6.78125 71.0469 6.78125C73.2448 6.78125 74.9896 7.39062 76.2812 8.60938C77.5729 9.82812 78.2188 11.4792 78.2188 13.5625H73.2812C73.2812 12.6875 73.0677 12.0156 72.6406 11.5469C72.2135 11.0781 71.6406 10.8438 70.9219 10.8438C69.5573 10.8438 68.7604 11.7135 68.5312 13.4531C68.4583 14.0052 68.4219 14.7656 68.4219 15.7344C68.4219 17.4323 68.625 18.6094 69.0312 19.2656C69.4375 19.9219 70.0833 20.25 70.9688 20.25Z" fill="white"/>
<path d="M85.5938 8.90625C86.7188 7.48958 88.1562 6.78125 89.9062 6.78125C91.7708 6.78125 93.1771 7.33333 94.125 8.4375C95.0729 9.54167 95.5573 11.1719 95.5781 13.3281V24H90.2969V13.4531C90.2969 12.5573 90.1146 11.901 89.75 11.4844C89.3854 11.0573 88.7656 10.8438 87.8906 10.8438C86.8073 10.8438 86.0417 11.1875 85.5938 11.875V24H80.3281V0H85.5938V8.90625Z" fill="white"/>
<path d="M101.766 18.8906C102.599 18.8906 103.292 19.1406 103.844 19.6406C104.396 20.1302 104.672 20.7604 104.672 21.5312C104.672 22.3021 104.396 22.9375 103.844 23.4375C103.292 23.9271 102.599 24.1719 101.766 24.1719C100.922 24.1719 100.224 23.9219 99.6719 23.4219C99.1302 22.9219 98.8594 22.2917 98.8594 21.5312C98.8594 20.7708 99.1302 20.1406 99.6719 19.6406C100.224 19.1406 100.922 18.8906 101.766 18.8906Z" fill="white"/>
</svg>
