<svg width="64" height="60" viewBox="0 0 64 60" fill="none" xmlns="http://www.w3.org/2000/svg">
<path d="M25.8362 59.5066C31.7711 57.1727 30.4708 50.7377 27.47 46.67C24.5026 42.5022 20.4015 39.6348 16.2671 36.8674C13.3172 35.0081 10.6833 32.6894 8.46506 29.999C7.53148 28.8987 5.63099 26.8648 7.56482 26.4647C9.532 26.0646 12.9329 27.9984 14.6667 28.732C17.7008 29.999 20.7016 31.466 23.5023 33.1998L26.8698 27.5317C21.6685 24.0974 15.0001 21.0633 8.79848 20.1631C5.26422 19.6296 1.52992 20.3631 0.329607 24.1975C-0.737337 27.4983 0.963105 30.8325 2.89694 33.4332C7.4648 39.5348 14.5666 42.4689 19.868 47.7369C21.0017 48.8372 22.3687 50.1375 23.0355 51.6713C23.7357 53.1383 23.569 53.2383 22.0019 53.2383C17.8675 53.2383 12.6995 50.0042 9.33195 47.8703L5.96441 53.5384C11.0657 56.6726 19.6013 61.5738 25.8362 59.5066V59.5066ZM62.8125 7.49311C63.546 6.75958 63.546 5.55927 62.8125 4.85909L58.4781 0.524627C58.1288 0.188056 57.6627 0 57.1777 0C56.6927 0 56.2266 0.188056 55.8774 0.524627L52.4765 3.92551L59.4116 10.8606L62.8125 7.49311ZM30.004 26.398V33.3332H36.9391L57.4445 12.8278L50.5093 5.89269L30.004 26.398Z" fill="#009AD9"/>
</svg>
