<svg width="66" height="60" viewBox="0 0 66 60" fill="none" xmlns="http://www.w3.org/2000/svg">
<path d="M49.5 40.5C49.5 43.83 46.83 46.5 43.5 46.5C40.17 46.5 37.5 43.83 37.5 40.5C37.5 37.17 40.2 34.5 43.5 34.5C46.8 34.5 49.5 37.2 49.5 40.5ZM22.5 34.5C19.2 34.5 16.5 37.2 16.5 40.5C16.5 43.8 19.2 46.5 22.5 46.5C25.8 46.5 28.5 43.83 28.5 40.5C28.5 37.17 25.83 34.5 22.5 34.5ZM66 39V48C66 49.65 64.65 51 63 51H60V54C60 57.33 57.33 60 54 60H12C10.4087 60 8.88258 59.3679 7.75736 58.2426C6.63214 57.1174 6 55.5913 6 54V51H3C1.35 51 0 49.65 0 48V39C0 37.35 1.35 36 3 36H6C6 24.39 15.39 15 27 15H30V11.19C28.2 10.17 27 8.22 27 6C27 2.7 29.7 0 33 0C36.3 0 39 2.7 39 6C39 8.22 37.8 10.17 36 11.19V15H39C50.61 15 60 24.39 60 36H63C64.65 36 66 37.35 66 39ZM60 42H54V36C54 27.72 47.28 21 39 21H27C18.72 21 12 27.72 12 36V42H6V45H12V54H54V45H60V42Z" fill="#009AD9"/>
</svg>
