<svg width="100" height="60" viewBox="0 0 100 60" fill="none" xmlns="http://www.w3.org/2000/svg">
<path d="M50 0C53.8677 0 57.5771 1.52586 60.312 4.2419C63.0469 6.95795 64.5833 10.6417 64.5833 14.4828C64.5833 18.3238 63.0469 22.0076 60.312 24.7236C57.5771 27.4397 53.8677 28.9655 50 28.9655C46.1323 28.9655 42.4229 27.4397 39.688 24.7236C36.9531 22.0076 35.4167 18.3238 35.4167 14.4828C35.4167 10.6417 36.9531 6.95795 39.688 4.2419C42.4229 1.52586 46.1323 0 50 0V0ZM20.8333 10.3448C23.1667 10.3448 25.3333 10.9655 27.2083 12.0828C26.5833 18 28.3333 23.8759 31.9167 28.469C29.8333 32.4414 25.6667 35.1724 20.8333 35.1724C17.5181 35.1724 14.3387 33.8645 11.9945 31.5365C9.65029 29.2085 8.33333 26.051 8.33333 22.7586C8.33333 19.4663 9.65029 16.3088 11.9945 13.9807C14.3387 11.6527 17.5181 10.3448 20.8333 10.3448V10.3448ZM79.1667 10.3448C82.4819 10.3448 85.6613 11.6527 88.0055 13.9807C90.3497 16.3088 91.6667 19.4663 91.6667 22.7586C91.6667 26.051 90.3497 29.2085 88.0055 31.5365C85.6613 33.8645 82.4819 35.1724 79.1667 35.1724C74.3333 35.1724 70.1667 32.4414 68.0833 28.469C71.7161 23.8114 73.4024 17.9429 72.7917 12.0828C74.6667 10.9655 76.8333 10.3448 79.1667 10.3448V10.3448ZM22.9167 52.7586C22.9167 44.1931 35.0417 37.2414 50 37.2414C64.9583 37.2414 77.0833 44.1931 77.0833 52.7586V60H22.9167V52.7586ZM0 60V53.7931C0 48.0414 7.875 43.2 18.5417 41.7931C16.0833 44.6069 14.5833 48.4965 14.5833 52.7586V60H0ZM100 60H85.4167V52.7586C85.4167 48.4965 83.9167 44.6069 81.4583 41.7931C92.125 43.2 100 48.0414 100 53.7931V60Z" fill="#009AD9"/>
</svg>
